<svg xmlns="http://www.w3.org/2000/svg" viewBox="0 0 512 512" role="img" aria-label="Optimizador de Rutas">
  <defs>
    <linearGradient id="g" x1="0" y1="0" x2="1" y2="1">
      <stop offset="0" stop-color="#22c55e"/>
      <stop offset="1" stop-color="#38bdf8"/>
    </linearGradient>
  </defs>
  <rect width="512" height="512" rx="112" fill="#0a0a0a"/>
  <path d="M152 136c0-30.9 25.1-56 56-56h96c30.9 0 56 25.1 56 56v24c0 30.9-25.1 56-56 56h-96c-30.9 0-56-25.1-56-56v-24Z" fill="url(#g)"/>
  <path d="M196 296c0-22.1 17.9-40 40-40h40c22.1 0 40 17.9 40 40v80c0 22.1-17.9 40-40 40h-40c-22.1 0-40-17.9-40-40v-80Z" fill="#ffffff" opacity="0.92"/>
  <path d="M156 240c22-28 52-44 88-44h24" fill="none" stroke="#a1a1aa" stroke-width="18" stroke-linecap="round"/>
  <path d="M356 272c-20 24-48 40-80 40h-16" fill="none" stroke="#a1a1aa" stroke-width="18" stroke-linecap="round"/>
  <circle cx="156" cy="240" r="14" fill="#22c55e"/>
  <circle cx="356" cy="272" r="14" fill="#38bdf8"/>
</svg>
